<svg width="1020" height="311" viewBox="0 0 1020 311" fill="none" xmlns="http://www.w3.org/2000/svg">
<path opacity="0.13" d="M48.458 27.3559H51.458V24.3559H48.458V27.3559ZM48.458 120.456V123.456H51.458V120.456H48.458ZM13.878 120.456H10.878V123.456H13.878V120.456ZM13.878 27.3559V24.3559H10.878V27.3559H13.878ZM45.458 27.3559V120.456H51.458V27.3559H45.458ZM48.458 117.456H13.878V123.456H48.458V117.456ZM16.878 120.456V27.3559H10.878V120.456H16.878ZM13.878 30.3559H48.458V24.3559H13.878V30.3559ZM171.754 68.4529V71.4529H174.907L174.75 68.3038L171.754 68.4529ZM136.376 68.4529L133.41 68.9023L133.797 71.4529H136.376V68.4529ZM136.376 79.0929V76.0929H133.791L133.409 78.65L136.376 79.0929ZM171.754 79.0929L174.751 79.2414L174.907 76.0929H171.754V79.0929ZM58.1132 73.7729C58.1132 58.1511 62.3377 47.2215 70.9283 40.0877C79.6445 32.8496 93.4272 29.0259 113.633 29.0259V23.0259C92.8752 23.0259 77.3978 26.9162 67.0951 35.4718C56.6666 44.1318 52.1132 57.0757 52.1132 73.7729H58.1132ZM113.633 29.0259C131.991 29.0259 145.414 32.2546 154.365 38.6571C163.152 44.9424 168.061 54.6033 168.758 68.602L174.75 68.3038C173.984 52.9095 168.453 41.3569 157.855 33.777C147.422 26.3142 132.516 23.0259 113.633 23.0259V29.0259ZM171.754 65.4529H136.376V71.4529H171.754V65.4529ZM139.342 68.0035C138.559 62.8329 136.077 58.7054 131.525 55.999C127.156 53.4013 121.167 52.2859 113.633 52.2859V58.2859C120.729 58.2859 125.446 59.365 128.459 61.1563C131.289 62.8389 132.863 65.2949 133.41 68.9023L139.342 68.0035ZM113.633 52.2859C103.075 52.2859 96.1228 54.497 91.8715 58.707C87.5853 62.9516 86.6932 68.5876 86.6932 73.7729H92.6932C92.6932 69.1162 93.5301 65.5087 96.0934 62.9703C98.6916 60.3973 103.709 58.2859 113.633 58.2859V52.2859ZM86.6932 73.7729C86.6932 79.0358 87.6231 84.7235 91.911 89.0113C96.1737 93.2741 103.125 95.5259 113.633 95.5259V89.5259C103.793 89.5259 98.7737 87.3887 96.1536 84.7687C93.5588 82.1738 92.6932 78.485 92.6932 73.7729H86.6932ZM113.633 95.5259C121.178 95.5259 127.177 94.3741 131.551 91.7143C136.099 88.9486 138.564 84.7542 139.343 79.5358L133.409 78.65C132.858 82.3426 131.267 84.8647 128.433 86.5878C125.426 88.4167 120.718 89.5259 113.633 89.5259V95.5259ZM136.376 82.0929H171.754V76.0929H136.376V82.0929ZM168.758 78.9444C168.06 93.0216 163.176 102.749 154.404 109.079C145.472 115.525 132.055 118.786 113.633 118.786V124.786C132.585 124.786 147.496 121.464 157.915 113.944C168.495 106.309 173.985 94.6902 174.751 79.2414L168.758 78.9444ZM113.633 118.786C93.4319 118.786 79.6517 114.931 70.9354 107.647C62.3403 100.464 58.1132 89.4652 58.1132 73.7729H52.1132C52.1132 90.5326 56.6641 103.54 67.088 112.251C77.3907 120.861 92.8705 124.786 113.633 124.786V118.786ZM326.147 27.3559V24.3559H323.147V27.3559H326.147ZM360.727 27.3559H363.727V24.3559H360.727V27.3559ZM360.727 120.456V123.456H363.727V120.456H360.727ZM326.147 120.456H323.147V123.456H326.147V120.456ZM326.147 88.5359H329.147V85.5359H326.147V88.5359ZM271.617 88.5359V85.5359H268.617V88.5359H271.617ZM271.617 120.456V123.456H274.617V120.456H271.617ZM237.037 120.456H234.037V123.456H237.037V120.456ZM237.037 27.3559V24.3559H234.037V27.3559H237.037ZM271.617 27.3559H274.617V24.3559H271.617V27.3559ZM271.617 59.2759H268.617V62.2759H271.617V59.2759ZM326.147 59.2759V62.2759H329.147V59.2759H326.147ZM326.147 30.3559H360.727V24.3559H326.147V30.3559ZM357.727 27.3559V120.456H363.727V27.3559H357.727ZM360.727 117.456H326.147V123.456H360.727V117.456ZM329.147 120.456V88.5359H323.147V120.456H329.147ZM326.147 85.5359H271.617V91.5359H326.147V85.5359ZM268.617 88.5359V120.456H274.617V88.5359H268.617ZM271.617 117.456H237.037V123.456H271.617V117.456ZM240.037 120.456V27.3559H234.037V120.456H240.037ZM237.037 30.3559H271.617V24.3559H237.037V30.3559ZM268.617 27.3559V59.2759H274.617V27.3559H268.617ZM271.617 62.2759H326.147V56.2759H271.617V62.2759ZM329.147 59.2759V27.3559H323.147V59.2759H329.147ZM457.812 120.456L455.009 121.524L455.745 123.456H457.812V120.456ZM451.428 103.698L454.232 102.63L453.496 100.698H451.428V103.698ZM411.794 103.698V100.698H409.727L408.991 102.63L411.794 103.698ZM405.41 120.456V123.456H407.478L408.214 121.524L405.41 120.456ZM367.372 120.456L364.601 119.308L362.882 123.456H367.372V120.456ZM405.942 27.3559V24.3559H403.938L403.171 26.2077L405.942 27.3559ZM457.28 27.3559L460.052 26.2077L459.285 24.3559H457.28V27.3559ZM495.85 120.456V123.456H500.34L498.622 119.308L495.85 120.456ZM420.838 79.7579L418.033 78.6959L416.495 82.7579H420.838V79.7579ZM442.384 79.7579V82.7579H446.727L445.19 78.6959L442.384 79.7579ZM431.611 51.2959L434.417 50.2339L431.611 42.8212L428.806 50.2339L431.611 51.2959ZM460.616 119.388L454.232 102.63L448.625 104.766L455.009 121.524L460.616 119.388ZM451.428 100.698H411.794V106.698H451.428V100.698ZM408.991 102.63L402.607 119.388L408.214 121.524L414.598 104.766L408.991 102.63ZM405.41 117.456H367.372V123.456H405.41V117.456ZM370.144 121.604L408.714 28.5041L403.171 26.2077L364.601 119.308L370.144 121.604ZM405.942 30.3559H457.28V24.3559H405.942V30.3559ZM454.509 28.5041L493.079 121.604L498.622 119.308L460.052 26.2077L454.509 28.5041ZM495.85 117.456H457.812V123.456H495.85V117.456ZM420.838 82.7579H442.384V76.7579H420.838V82.7579ZM445.19 78.6959L434.417 50.2339L428.806 52.3579L439.578 80.8199L445.19 78.6959ZM428.806 50.2339L418.033 78.6959L423.644 80.8199L434.417 52.3579L428.806 50.2339ZM607.236 68.4529V71.4529H610.389L610.232 68.3038L607.236 68.4529ZM571.858 68.4529L568.892 68.9023L569.278 71.4529H571.858V68.4529ZM571.858 79.0929V76.0929H569.272L568.891 78.65L571.858 79.0929ZM607.236 79.0929L610.232 79.2414L610.388 76.0929H607.236V79.0929ZM493.595 73.7729C493.595 58.1511 497.819 47.2215 506.41 40.0877C515.126 32.8496 528.909 29.0259 549.115 29.0259V23.0259C528.357 23.0259 512.879 26.9162 502.577 35.4718C492.148 44.1318 487.595 57.0757 487.595 73.7729H493.595ZM549.115 29.0259C567.472 29.0259 580.895 32.2546 589.846 38.6571C598.634 44.9424 603.543 54.6033 604.239 68.602L610.232 68.3038C609.466 52.9095 603.934 41.3569 593.337 33.777C582.903 26.3142 567.997 23.0259 549.115 23.0259V29.0259ZM607.236 65.4529H571.858V71.4529H607.236V65.4529ZM574.824 68.0035C574.04 62.8329 571.559 58.7054 567.007 55.999C562.638 53.4013 556.649 52.2859 549.115 52.2859V58.2859C556.211 58.2859 560.928 59.365 563.94 61.1563C566.77 62.8389 568.345 65.2949 568.892 68.9023L574.824 68.0035ZM549.115 52.2859C538.557 52.2859 531.604 54.497 527.353 58.707C523.067 62.9516 522.175 68.5876 522.175 73.7729H528.175C528.175 69.1162 529.012 65.5087 531.575 62.9703C534.173 60.3973 539.191 58.2859 549.115 58.2859V52.2859ZM522.175 73.7729C522.175 79.0358 523.105 84.7235 527.392 89.0113C531.655 93.2741 538.606 95.5259 549.115 95.5259V89.5259C539.274 89.5259 534.255 87.3887 531.635 84.7687C529.04 82.1738 528.175 78.485 528.175 73.7729H522.175ZM549.115 95.5259C556.66 95.5259 562.658 94.3741 567.032 91.7143C571.58 88.9486 574.046 84.7542 574.825 79.5358L568.891 78.65C568.339 82.3426 566.749 84.8647 563.915 86.5878C560.907 88.4167 556.199 89.5259 549.115 89.5259V95.5259ZM571.858 82.0929H607.236V76.0929H571.858V82.0929ZM604.239 78.9444C603.542 93.0216 598.658 102.749 589.886 109.079C580.954 115.525 567.536 118.786 549.115 118.786V124.786C568.066 124.786 582.977 121.464 593.397 113.944C603.977 106.309 609.467 94.6902 610.232 79.2414L604.239 78.9444ZM549.115 118.786C528.913 118.786 515.133 114.931 506.417 107.647C497.822 100.464 493.595 89.4652 493.595 73.7729H487.595C487.595 90.5326 492.146 103.54 502.569 112.251C512.872 120.861 528.352 124.786 549.115 124.786V118.786ZM741.893 27.3559L743.794 29.677L750.292 24.3559H741.893V27.3559ZM688.294 71.2459L686.393 68.9248L683.717 71.1163L686.265 73.4558L688.294 71.2459ZM741.893 120.456V123.456H749.596L743.922 118.246L741.893 120.456ZM694.013 120.456L691.901 122.587L692.778 123.456H694.013V120.456ZM664.221 90.9299L666.333 88.7991L664.406 86.8898L662.313 88.6147L664.221 90.9299ZM649.857 102.767L647.949 100.452L646.857 101.352V102.767H649.857ZM649.857 120.456V123.456H652.857V120.456H649.857ZM615.277 120.456H612.277V123.456H615.277V120.456ZM615.277 27.3559V24.3559H612.277V27.3559H615.277ZM649.857 27.3559H652.857V24.3559H649.857V27.3559ZM649.857 63.7979H646.857V70.2898L651.801 66.0827L649.857 63.7979ZM692.683 27.3559V24.3559H691.579L690.739 25.0711L692.683 27.3559ZM739.992 25.0348L686.393 68.9248L690.195 73.567L743.794 29.677L739.992 25.0348ZM686.265 73.4558L739.864 122.666L743.922 118.246L690.323 69.036L686.265 73.4558ZM741.893 117.456H694.013V123.456H741.893V117.456ZM696.125 118.325L666.333 88.7991L662.109 93.0607L691.901 122.587L696.125 118.325ZM662.313 88.6147L647.949 100.452L651.765 105.082L666.129 93.2451L662.313 88.6147ZM646.857 102.767V120.456H652.857V102.767H646.857ZM649.857 117.456H615.277V123.456H649.857V117.456ZM618.277 120.456V27.3559H612.277V120.456H618.277ZM615.277 30.3559H649.857V24.3559H615.277V30.3559ZM646.857 27.3559V63.7979H652.857V27.3559H646.857ZM651.801 66.0827L694.627 29.6407L690.739 25.0711L647.913 61.5131L651.801 66.0827ZM692.683 30.3559H741.893V24.3559H692.683V30.3559ZM785.901 24.6959L788.832 25.337L789.629 21.6959H785.901V24.6959ZM776.591 67.2559V70.2559H779.006L779.522 67.897L776.591 67.2559ZM748.661 67.2559L745.685 66.8838L745.263 70.2559H748.661V67.2559ZM753.981 24.6959V21.6959H751.333L751.005 24.3238L753.981 24.6959ZM782.971 24.0548L773.661 66.6148L779.522 67.897L788.832 25.337L782.971 24.0548ZM776.591 64.2559H748.661V70.2559H776.591V64.2559ZM751.638 67.628L756.958 25.068L751.005 24.3238L745.685 66.8838L751.638 67.628ZM753.981 27.6959H785.901V21.6959H753.981V27.6959ZM848.524 91.1959L845.998 89.5769L843.037 94.1959H848.524V91.1959ZM899.463 91.1959H902.463V88.1959H899.463V91.1959ZM899.463 120.456V123.456H902.463V120.456H899.463ZM795.191 120.456H792.191V123.456H795.191V120.456ZM831.101 63.9309V66.9309H834.101V63.9309H831.101ZM796.521 63.9309H793.521V66.9309H796.521V63.9309ZM897.793 55.2859C897.793 61.9516 895.326 66.5254 891.546 69.9522C887.645 73.4888 882.226 75.9028 876.239 77.8144C873.27 78.7627 870.23 79.5665 867.243 80.3284C864.287 81.0823 861.331 81.807 858.669 82.5702C856.011 83.3322 853.482 84.1769 851.357 85.2196C849.267 86.2455 847.259 87.6097 845.998 89.5769L851.049 92.8149C851.451 92.1886 852.323 91.4289 854.001 90.6059C855.644 89.7995 857.769 89.0701 860.323 88.3379C862.873 87.6069 865.686 86.9174 868.726 86.1423C871.733 85.3752 874.916 84.5353 878.064 83.5301C884.313 81.5349 890.715 78.8035 895.576 74.3975C900.557 69.8817 903.793 63.7157 903.793 55.2859H897.793ZM848.524 94.1959H899.463V88.1959H848.524V94.1959ZM896.463 91.1959V120.456H902.463V91.1959H896.463ZM899.463 117.456H795.191V123.456H899.463V117.456ZM798.191 120.456V104.496H792.191V120.456H798.191ZM798.191 104.496C798.191 97.0131 801.923 91.5038 808.04 87.1013C814.262 82.6234 822.725 79.4781 831.538 76.92C835.918 75.6486 840.305 74.5434 844.478 73.4865C848.622 72.4367 852.586 71.427 856.004 70.3664C859.382 69.3186 862.47 68.1503 864.761 66.706C866.991 65.2998 869.213 63.1394 869.213 59.9409H863.213C863.213 60.0009 863.215 60.5878 861.561 61.6307C859.967 62.6354 857.507 63.618 854.227 64.6358C850.987 65.6409 847.183 66.6116 843.004 67.6702C838.854 68.7214 834.363 69.8523 829.865 71.1578C820.923 73.7534 811.63 77.1251 804.535 82.2315C797.336 87.4134 792.191 94.5557 792.191 104.496H798.191ZM869.213 59.9409C869.213 58.5335 868.916 56.9996 867.866 55.6706C866.841 54.3732 865.406 53.6642 863.945 53.2374C861.174 52.4286 856.987 52.2859 851.317 52.2859V58.2859C857.217 58.2859 860.478 58.4757 862.263 58.9969C863.079 59.2351 863.198 59.4405 863.158 59.39C863.093 59.3078 863.213 59.3533 863.213 59.9409H869.213ZM851.317 52.2859C845.4 52.2859 839.799 52.2539 835.741 53.4983C833.608 54.1521 831.605 55.2353 830.165 57.0988C828.713 58.9781 828.101 61.3049 828.101 63.9309H834.101C834.101 62.2344 834.486 61.3193 834.913 60.7672C835.351 60.1994 836.107 59.6616 837.5 59.2347C840.49 58.3179 844.997 58.2859 851.317 58.2859V52.2859ZM831.101 60.9309H796.521V66.9309H831.101V60.9309ZM799.521 63.9309C799.521 56.3173 800.828 50.4662 803.103 45.9472C805.362 41.4613 808.652 38.1307 812.898 35.6479C821.554 30.5858 834.194 29.0259 849.987 29.0259V23.0259C834.125 23.0259 820.032 24.525 809.869 30.4686C804.705 33.4887 800.564 37.6477 797.744 43.249C794.94 48.8172 793.521 55.651 793.521 63.9309H799.521ZM849.987 29.0259C865.963 29.0259 878.037 30.5764 886.049 34.6517C889.98 36.6507 892.858 39.2214 894.778 42.4757C896.705 45.7419 897.793 49.9076 897.793 55.2859H903.793C903.793 49.0933 902.536 43.8159 899.945 39.4263C897.348 35.0248 893.534 31.7268 888.77 29.3036C879.392 24.5344 866.063 23.0259 849.987 23.0259V29.0259ZM999.938 73.9059L998.546 71.2484L993.472 73.9059L998.546 76.5634L999.938 73.9059ZM907.503 85.2109V82.2109H904.503V85.2109H907.503ZM942.083 85.2109H945.083V82.2109H942.083V85.2109ZM949.664 81.8859H946.664V84.8859H949.664V81.8859ZM949.664 65.9259V62.9259H946.664V65.9259H949.664ZM942.083 62.6009V65.6009H945.083V62.6009H942.083ZM907.503 62.6009H904.503V65.6009H907.503V62.6009ZM998.546 76.5634C1002.42 78.5937 1005.29 80.9912 1007.18 83.7754C1009.06 86.5308 1010.1 89.8223 1010.1 93.8559H1016.1C1016.1 88.7125 1014.75 84.2235 1012.14 80.3954C1009.55 76.5961 1005.83 73.6071 1001.33 71.2484L998.546 76.5634ZM1010.1 93.8559C1010.1 98.8714 1009.03 102.765 1007.12 105.835C1005.21 108.903 1002.32 111.367 998.33 113.301C990.21 117.238 977.941 118.786 961.634 118.786V124.786C978.045 124.786 991.511 123.275 1000.95 118.7C1005.74 116.378 1009.58 113.223 1012.21 109.009C1014.83 104.797 1016.1 99.7464 1016.1 93.8559H1010.1ZM961.634 118.786C945.508 118.786 932.676 117.228 923.919 112.305C919.623 109.89 916.325 106.672 914.072 102.38C911.804 98.0595 910.503 92.4747 910.503 85.2109H904.503C904.503 93.1756 905.929 99.7769 908.76 105.169C911.606 110.591 915.781 114.613 920.979 117.535C931.207 123.285 945.441 124.786 961.634 124.786V118.786ZM907.503 88.2109H942.083V82.2109H907.503V88.2109ZM939.083 85.2109C939.083 87.6221 939.76 89.7776 941.327 91.4749C942.827 93.0998 944.856 93.9893 946.948 94.5196C951.008 95.5486 956.687 95.5259 962.964 95.5259V89.5259C956.34 89.5259 951.578 89.5032 948.423 88.7035C946.907 88.3193 946.135 87.8373 945.736 87.4049C945.403 87.0448 945.083 86.4572 945.083 85.2109H939.083ZM962.964 95.5259C966.003 95.5259 968.568 95.5264 970.668 95.4491C972.739 95.3728 974.566 95.2167 976.07 94.8354C977.599 94.4479 979.142 93.741 980.218 92.3012C981.276 90.8844 981.525 89.2292 981.525 87.7379H975.525C975.525 88.6406 975.358 88.7809 975.411 88.7107C975.48 88.6176 975.428 88.8084 974.596 89.0194C973.739 89.2366 972.441 89.3797 970.447 89.4531C968.482 89.5254 966.043 89.5259 962.964 89.5259V95.5259ZM981.525 87.7379C981.525 86.0922 981.319 84.0636 979.877 82.3939C978.478 80.7742 976.41 80.0663 974.207 79.6658C969.841 78.872 962.246 78.8859 949.664 78.8859V84.8859C962.617 84.8859 969.453 84.8998 973.134 85.569C974.954 85.9 975.313 86.2894 975.336 86.3156C975.342 86.3227 975.349 86.3322 975.361 86.3548C975.373 86.3801 975.397 86.4355 975.423 86.5377C975.479 86.7607 975.525 87.126 975.525 87.7379H981.525ZM952.664 81.8859V65.9259H946.664V81.8859H952.664ZM949.664 68.9259C962.246 68.9259 969.841 68.9398 974.207 68.146C976.41 67.7455 978.478 67.0376 979.877 65.4179C981.319 63.7482 981.525 61.7196 981.525 60.0739H975.525C975.525 60.6858 975.479 61.0511 975.423 61.2741C975.397 61.3763 975.373 61.4317 975.361 61.457C975.349 61.4796 975.342 61.4891 975.336 61.4962C975.313 61.5224 974.954 61.9118 973.134 62.2428C969.453 62.912 962.617 62.9259 949.664 62.9259V68.9259ZM981.525 60.0739C981.525 58.5826 981.276 56.9274 980.218 55.5106C979.142 54.0708 977.599 53.3639 976.07 52.9764C974.566 52.5951 972.739 52.439 970.668 52.3627C968.568 52.2854 966.003 52.2859 962.964 52.2859V58.2859C966.043 58.2859 968.482 58.2864 970.447 58.3587C972.441 58.4321 973.739 58.5752 974.596 58.7924C975.428 59.0034 975.48 59.1942 975.411 59.1011C975.358 59.0309 975.525 59.1712 975.525 60.0739H981.525ZM962.964 52.2859C956.687 52.2859 951.008 52.2632 946.948 53.2922C944.856 53.8225 942.827 54.712 941.327 56.3369C939.76 58.0342 939.083 60.1897 939.083 62.6009H945.083C945.083 61.3546 945.403 60.767 945.736 60.4069C946.135 59.9745 946.907 59.4925 948.423 59.1083C951.578 58.3086 956.34 58.2859 962.964 58.2859V52.2859ZM942.083 59.6009H907.503V65.6009H942.083V59.6009ZM910.503 62.6009C910.503 55.3371 911.804 49.7523 914.072 45.4316C916.325 41.1399 919.623 37.9219 923.919 35.5071C932.676 30.5841 945.508 29.0259 961.634 29.0259V23.0259C945.441 23.0259 931.207 24.5267 920.979 30.2769C915.781 33.1988 911.606 37.2209 908.76 42.6424C905.929 48.0349 904.503 54.6362 904.503 62.6009H910.503ZM961.634 29.0259C977.941 29.0259 990.21 30.5741 998.33 34.5108C1002.32 36.4448 1005.21 38.9092 1007.12 41.9768C1009.03 45.0466 1010.1 48.9404 1010.1 53.9559H1016.1C1016.1 48.0654 1014.83 43.0149 1012.21 38.803C1009.58 34.5889 1005.74 31.434 1000.95 29.112C991.511 24.5367 978.045 23.0259 961.634 23.0259V29.0259ZM1010.1 53.9559C1010.1 57.9895 1009.06 61.281 1007.18 64.0364C1005.29 66.8206 1002.42 69.2181 998.546 71.2484L1001.33 76.5634C1005.83 74.2047 1009.55 71.2157 1012.14 67.4164C1014.75 63.5883 1016.1 59.0993 1016.1 53.9559H1010.1Z" fill="white"/>
<path opacity="0.13" d="M48.458 177.564H51.458V174.564H48.458V177.564ZM48.458 270.664V273.664H51.458V270.664H48.458ZM13.878 270.664H10.878V273.664H13.878V270.664ZM13.878 177.564V174.564H10.878V177.564H13.878ZM45.458 177.564V270.664H51.458V177.564H45.458ZM48.458 267.664H13.878V273.664H48.458V267.664ZM16.878 270.664V177.564H10.878V270.664H16.878ZM13.878 180.564H48.458V174.564H13.878V180.564ZM171.754 218.661V221.661H174.907L174.75 218.511L171.754 218.661ZM136.376 218.661L133.41 219.11L133.797 221.661H136.376V218.661ZM136.376 229.301V226.301H133.791L133.409 228.858L136.376 229.301ZM171.754 229.301L174.751 229.449L174.907 226.301H171.754V229.301ZM58.1132 223.981C58.1132 208.359 62.3377 197.429 70.9283 190.295C79.6445 183.057 93.4272 179.234 113.633 179.234V173.234C92.8752 173.234 77.3978 177.124 67.0951 185.679C56.6666 194.339 52.1132 207.283 52.1132 223.981H58.1132ZM113.633 179.234C131.991 179.234 145.414 182.462 154.365 188.865C163.152 195.15 168.061 204.811 168.758 218.81L174.75 218.511C173.984 203.117 168.453 191.565 157.855 183.985C147.422 176.522 132.516 173.234 113.633 173.234V179.234ZM171.754 215.661H136.376V221.661H171.754V215.661ZM139.342 218.211C138.559 213.041 136.077 208.913 131.525 206.207C127.156 203.609 121.167 202.494 113.633 202.494V208.494C120.729 208.494 125.446 209.573 128.459 211.364C131.289 213.047 132.863 215.503 133.41 219.11L139.342 218.211ZM113.633 202.494C103.075 202.494 96.1228 204.705 91.8715 208.915C87.5853 213.159 86.6932 218.795 86.6932 223.981H92.6932C92.6932 219.324 93.5301 215.716 96.0934 213.178C98.6916 210.605 103.709 208.494 113.633 208.494V202.494ZM86.6932 223.981C86.6932 229.243 87.6231 234.931 91.911 239.219C96.1737 243.482 103.125 245.734 113.633 245.734V239.734C103.793 239.734 98.7737 237.596 96.1536 234.976C93.5588 232.381 92.6932 228.693 92.6932 223.981H86.6932ZM113.633 245.734C121.178 245.734 127.177 244.582 131.551 241.922C136.099 239.156 138.564 234.962 139.343 229.743L133.409 228.858C132.858 232.55 131.267 235.072 128.433 236.795C125.426 238.624 120.718 239.734 113.633 239.734V245.734ZM136.376 232.301H171.754V226.301H136.376V232.301ZM168.758 229.152C168.06 243.229 163.176 252.956 154.404 259.287C145.472 265.732 132.055 268.994 113.633 268.994V274.994C132.585 274.994 147.496 271.671 157.915 264.152C168.495 256.517 173.985 244.898 174.751 229.449L168.758 229.152ZM113.633 268.994C93.4319 268.994 79.6517 265.138 70.9354 257.855C62.3403 250.672 58.1132 239.673 58.1132 223.981H52.1132C52.1132 240.74 56.6641 253.748 67.088 262.459C77.3907 271.068 92.8705 274.994 113.633 274.994V268.994ZM326.147 177.564V174.564H323.147V177.564H326.147ZM360.727 177.564H363.727V174.564H360.727V177.564ZM360.727 270.664V273.664H363.727V270.664H360.727ZM326.147 270.664H323.147V273.664H326.147V270.664ZM326.147 238.744H329.147V235.744H326.147V238.744ZM271.617 238.744V235.744H268.617V238.744H271.617ZM271.617 270.664V273.664H274.617V270.664H271.617ZM237.037 270.664H234.037V273.664H237.037V270.664ZM237.037 177.564V174.564H234.037V177.564H237.037ZM271.617 177.564H274.617V174.564H271.617V177.564ZM271.617 209.484H268.617V212.484H271.617V209.484ZM326.147 209.484V212.484H329.147V209.484H326.147ZM326.147 180.564H360.727V174.564H326.147V180.564ZM357.727 177.564V270.664H363.727V177.564H357.727ZM360.727 267.664H326.147V273.664H360.727V267.664ZM329.147 270.664V238.744H323.147V270.664H329.147ZM326.147 235.744H271.617V241.744H326.147V235.744ZM268.617 238.744V270.664H274.617V238.744H268.617ZM271.617 267.664H237.037V273.664H271.617V267.664ZM240.037 270.664V177.564H234.037V270.664H240.037ZM237.037 180.564H271.617V174.564H237.037V180.564ZM268.617 177.564V209.484H274.617V177.564H268.617ZM271.617 212.484H326.147V206.484H271.617V212.484ZM329.147 209.484V177.564H323.147V209.484H329.147ZM457.812 270.664L455.009 271.732L455.745 273.664H457.812V270.664ZM451.428 253.906L454.232 252.838L453.496 250.906H451.428V253.906ZM411.794 253.906V250.906H409.727L408.991 252.838L411.794 253.906ZM405.41 270.664V273.664H407.478L408.214 271.732L405.41 270.664ZM367.372 270.664L364.601 269.515L362.882 273.664H367.372V270.664ZM405.942 177.564V174.564H403.938L403.171 176.415L405.942 177.564ZM457.28 177.564L460.052 176.415L459.285 174.564H457.28V177.564ZM495.85 270.664V273.664H500.34L498.622 269.515L495.85 270.664ZM420.838 229.966L418.033 228.904L416.495 232.966H420.838V229.966ZM442.384 229.966V232.966H446.727L445.19 228.904L442.384 229.966ZM431.611 201.504L434.417 200.442L431.611 193.029L428.806 200.442L431.611 201.504ZM460.616 269.596L454.232 252.838L448.625 254.974L455.009 271.732L460.616 269.596ZM451.428 250.906H411.794V256.906H451.428V250.906ZM408.991 252.838L402.607 269.596L408.214 271.732L414.598 254.974L408.991 252.838ZM405.41 267.664H367.372V273.664H405.41V267.664ZM370.144 271.812L408.714 178.712L403.171 176.415L364.601 269.515L370.144 271.812ZM405.942 180.564H457.28V174.564H405.942V180.564ZM454.509 178.712L493.079 271.812L498.622 269.515L460.052 176.415L454.509 178.712ZM495.85 267.664H457.812V273.664H495.85V267.664ZM420.838 232.966H442.384V226.966H420.838V232.966ZM445.19 228.904L434.417 200.442L428.806 202.566L439.578 231.028L445.19 228.904ZM428.806 200.442L418.033 228.904L423.644 231.028L434.417 202.566L428.806 200.442ZM607.236 218.661V221.661H610.389L610.232 218.511L607.236 218.661ZM571.858 218.661L568.892 219.11L569.278 221.661H571.858V218.661ZM571.858 229.301V226.301H569.272L568.891 228.858L571.858 229.301ZM607.236 229.301L610.232 229.449L610.388 226.301H607.236V229.301ZM493.595 223.981C493.595 208.359 497.819 197.429 506.41 190.295C515.126 183.057 528.909 179.234 549.115 179.234V173.234C528.357 173.234 512.879 177.124 502.577 185.679C492.148 194.339 487.595 207.283 487.595 223.981H493.595ZM549.115 179.234C567.472 179.234 580.895 182.462 589.846 188.865C598.634 195.15 603.543 204.811 604.239 218.81L610.232 218.511C609.466 203.117 603.934 191.565 593.337 183.985C582.903 176.522 567.997 173.234 549.115 173.234V179.234ZM607.236 215.661H571.858V221.661H607.236V215.661ZM574.824 218.211C574.04 213.041 571.559 208.913 567.007 206.207C562.638 203.609 556.649 202.494 549.115 202.494V208.494C556.211 208.494 560.928 209.573 563.94 211.364C566.77 213.047 568.345 215.503 568.892 219.11L574.824 218.211ZM549.115 202.494C538.557 202.494 531.604 204.705 527.353 208.915C523.067 213.159 522.175 218.795 522.175 223.981H528.175C528.175 219.324 529.012 215.716 531.575 213.178C534.173 210.605 539.191 208.494 549.115 208.494V202.494ZM522.175 223.981C522.175 229.243 523.105 234.931 527.392 239.219C531.655 243.482 538.606 245.734 549.115 245.734V239.734C539.274 239.734 534.255 237.596 531.635 234.976C529.04 232.381 528.175 228.693 528.175 223.981H522.175ZM549.115 245.734C556.66 245.734 562.658 244.582 567.032 241.922C571.58 239.156 574.046 234.962 574.825 229.743L568.891 228.858C568.339 232.55 566.749 235.072 563.915 236.795C560.907 238.624 556.199 239.734 549.115 239.734V245.734ZM571.858 232.301H607.236V226.301H571.858V232.301ZM604.239 229.152C603.542 243.229 598.658 252.956 589.886 259.287C580.954 265.732 567.536 268.994 549.115 268.994V274.994C568.066 274.994 582.977 271.671 593.397 264.152C603.977 256.517 609.467 244.898 610.232 229.449L604.239 229.152ZM549.115 268.994C528.913 268.994 515.133 265.138 506.417 257.855C497.822 250.672 493.595 239.673 493.595 223.981H487.595C487.595 240.74 492.146 253.748 502.569 262.459C512.872 271.068 528.352 274.994 549.115 274.994V268.994ZM741.893 177.564L743.794 179.885L750.292 174.564H741.893V177.564ZM688.294 221.454L686.393 219.132L683.717 221.324L686.265 223.663L688.294 221.454ZM741.893 270.664V273.664H749.596L743.922 268.454L741.893 270.664ZM694.013 270.664L691.901 272.794L692.778 273.664H694.013V270.664ZM664.221 241.138L666.333 239.007L664.406 237.097L662.313 238.822L664.221 241.138ZM649.857 252.975L647.949 250.659L646.857 251.559V252.975H649.857ZM649.857 270.664V273.664H652.857V270.664H649.857ZM615.277 270.664H612.277V273.664H615.277V270.664ZM615.277 177.564V174.564H612.277V177.564H615.277ZM649.857 177.564H652.857V174.564H649.857V177.564ZM649.857 214.006H646.857V220.497L651.801 216.29L649.857 214.006ZM692.683 177.564V174.564H691.579L690.739 175.279L692.683 177.564ZM739.992 175.242L686.393 219.132L690.195 223.775L743.794 179.885L739.992 175.242ZM686.265 223.663L739.864 272.873L743.922 268.454L690.323 219.244L686.265 223.663ZM741.893 267.664H694.013V273.664H741.893V267.664ZM696.125 268.533L666.333 239.007L662.109 243.268L691.901 272.794L696.125 268.533ZM662.313 238.822L647.949 250.659L651.765 255.29L666.129 243.453L662.313 238.822ZM646.857 252.975V270.664H652.857V252.975H646.857ZM649.857 267.664H615.277V273.664H649.857V267.664ZM618.277 270.664V177.564H612.277V270.664H618.277ZM615.277 180.564H649.857V174.564H615.277V180.564ZM646.857 177.564V214.006H652.857V177.564H646.857ZM651.801 216.29L694.627 179.848L690.739 175.279L647.913 211.721L651.801 216.29ZM692.683 180.564H741.893V174.564H692.683V180.564ZM785.901 174.904L788.832 175.545L789.629 171.904H785.901V174.904ZM776.591 217.464V220.464H779.006L779.522 218.105L776.591 217.464ZM748.661 217.464L745.685 217.091L745.263 220.464H748.661V217.464ZM753.981 174.904V171.904H751.333L751.005 174.531L753.981 174.904ZM782.971 174.262L773.661 216.822L779.522 218.105L788.832 175.545L782.971 174.262ZM776.591 214.464H748.661V220.464H776.591V214.464ZM751.638 217.836L756.958 175.276L751.005 174.531L745.685 217.091L751.638 217.836ZM753.981 177.904H785.901V171.904H753.981V177.904ZM848.524 241.404L845.998 239.785L843.037 244.404H848.524V241.404ZM899.463 241.404H902.463V238.404H899.463V241.404ZM899.463 270.664V273.664H902.463V270.664H899.463ZM795.191 270.664H792.191V273.664H795.191V270.664ZM831.101 214.139V217.139H834.101V214.139H831.101ZM796.521 214.139H793.521V217.139H796.521V214.139ZM897.793 205.494C897.793 212.159 895.326 216.733 891.546 220.16C887.645 223.696 882.226 226.11 876.239 228.022C873.27 228.97 870.23 229.774 867.243 230.536C864.287 231.29 861.331 232.015 858.669 232.778C856.011 233.54 853.482 234.385 851.357 235.427C849.267 236.453 847.259 237.817 845.998 239.785L851.049 243.023C851.451 242.396 852.323 241.637 854.001 240.814C855.644 240.007 857.769 239.278 860.323 238.546C862.873 237.815 865.686 237.125 868.726 236.35C871.733 235.583 874.916 234.743 878.064 233.738C884.313 231.743 890.715 229.011 895.576 224.605C900.557 220.089 903.793 213.923 903.793 205.494H897.793ZM848.524 244.404H899.463V238.404H848.524V244.404ZM896.463 241.404V270.664H902.463V241.404H896.463ZM899.463 267.664H795.191V273.664H899.463V267.664ZM798.191 270.664V254.704H792.191V270.664H798.191ZM798.191 254.704C798.191 247.221 801.923 241.711 808.04 237.309C814.262 232.831 822.725 229.686 831.538 227.128C835.918 225.856 840.305 224.751 844.478 223.694C848.622 222.644 852.586 221.635 856.004 220.574C859.382 219.526 862.47 218.358 864.761 216.914C866.991 215.507 869.213 213.347 869.213 210.149H863.213C863.213 210.209 863.215 210.795 861.561 211.838C859.967 212.843 857.507 213.826 854.227 214.843C850.987 215.849 847.183 216.819 843.004 217.878C838.854 218.929 834.363 220.06 829.865 221.365C820.923 223.961 811.63 227.333 804.535 232.439C797.336 237.621 792.191 244.763 792.191 254.704H798.191ZM869.213 210.149C869.213 208.741 868.916 207.207 867.866 205.878C866.841 204.581 865.406 203.872 863.945 203.445C861.174 202.636 856.987 202.494 851.317 202.494V208.494C857.217 208.494 860.478 208.683 862.263 209.205C863.079 209.443 863.198 209.648 863.158 209.598C863.093 209.515 863.213 209.561 863.213 210.149H869.213ZM851.317 202.494C845.4 202.494 839.799 202.462 835.741 203.706C833.608 204.36 831.605 205.443 830.165 207.306C828.713 209.186 828.101 211.513 828.101 214.139H834.101C834.101 212.442 834.486 211.527 834.913 210.975C835.351 210.407 836.107 209.869 837.5 209.442C840.49 208.526 844.997 208.494 851.317 208.494V202.494ZM831.101 211.139H796.521V217.139H831.101V211.139ZM799.521 214.139C799.521 206.525 800.828 200.674 803.103 196.155C805.362 191.669 808.652 188.338 812.898 185.856C821.554 180.793 834.194 179.234 849.987 179.234V173.234C834.125 173.234 820.032 174.733 809.869 180.676C804.705 183.696 800.564 187.855 797.744 193.457C794.94 199.025 793.521 205.859 793.521 214.139H799.521ZM849.987 179.234C865.963 179.234 878.037 180.784 886.049 184.859C889.98 186.858 892.858 189.429 894.778 192.683C896.705 195.95 897.793 200.115 897.793 205.494H903.793C903.793 199.301 902.536 194.024 899.945 189.634C897.348 185.232 893.534 181.934 888.77 179.511C879.392 174.742 866.063 173.234 849.987 173.234V179.234ZM999.938 224.114L998.546 221.456L993.472 224.114L998.546 226.771L999.938 224.114ZM907.503 235.419V232.419H904.503V235.419H907.503ZM942.083 235.419H945.083V232.419H942.083V235.419ZM949.664 232.094H946.664V235.094H949.664V232.094ZM949.664 216.134V213.134H946.664V216.134H949.664ZM942.083 212.809V215.809H945.083V212.809H942.083ZM907.503 212.809H904.503V215.809H907.503V212.809ZM998.546 226.771C1002.42 228.801 1005.29 231.199 1007.18 233.983C1009.06 236.738 1010.1 240.03 1010.1 244.064H1016.1C1016.1 238.92 1014.75 234.431 1012.14 230.603C1009.55 226.804 1005.83 223.815 1001.33 221.456L998.546 226.771ZM1010.1 244.064C1010.1 249.079 1009.03 252.973 1007.12 256.043C1005.21 259.11 1002.32 261.575 998.33 263.509C990.21 267.445 977.941 268.994 961.634 268.994V274.994C978.045 274.994 991.511 273.483 1000.95 268.907C1005.74 266.585 1009.58 263.431 1012.21 259.216C1014.83 255.004 1016.1 249.954 1016.1 244.064H1010.1ZM961.634 268.994C945.508 268.994 932.676 267.435 923.919 262.512C919.623 260.098 916.325 256.879 914.072 252.588C911.804 248.267 910.503 242.682 910.503 235.419H904.503C904.503 243.383 905.929 249.985 908.76 255.377C911.606 260.799 915.781 264.821 920.979 267.743C931.207 273.493 945.441 274.994 961.634 274.994V268.994ZM907.503 238.419H942.083V232.419H907.503V238.419ZM939.083 235.419C939.083 237.83 939.76 239.985 941.327 241.683C942.827 243.307 944.856 244.197 946.948 244.727C951.008 245.756 956.687 245.734 962.964 245.734V239.734C956.34 239.734 951.578 239.711 948.423 238.911C946.907 238.527 946.135 238.045 945.736 237.613C945.403 237.252 945.083 236.665 945.083 235.419H939.083ZM962.964 245.734C966.003 245.734 968.568 245.734 970.668 245.657C972.739 245.58 974.566 245.424 976.07 245.043C977.599 244.656 979.142 243.949 980.218 242.509C981.276 241.092 981.525 239.437 981.525 237.946H975.525C975.525 238.848 975.358 238.989 975.411 238.918C975.48 238.825 975.428 239.016 974.596 239.227C973.739 239.444 972.441 239.587 970.447 239.661C968.482 239.733 966.043 239.734 962.964 239.734V245.734ZM981.525 237.946C981.525 236.3 981.319 234.271 979.877 232.601C978.478 230.982 976.41 230.274 974.207 229.873C969.841 229.08 962.246 229.094 949.664 229.094V235.094C962.617 235.094 969.453 235.107 973.134 235.777C974.954 236.108 975.313 236.497 975.336 236.523C975.342 236.53 975.349 236.54 975.361 236.562C975.373 236.588 975.397 236.643 975.423 236.745C975.479 236.968 975.525 237.334 975.525 237.946H981.525ZM952.664 232.094V216.134H946.664V232.094H952.664ZM949.664 219.134C962.246 219.134 969.841 219.147 974.207 218.354C976.41 217.953 978.478 217.245 979.877 215.626C981.319 213.956 981.525 211.927 981.525 210.282H975.525C975.525 210.893 975.479 211.259 975.423 211.482C975.397 211.584 975.373 211.639 975.361 211.665C975.349 211.687 975.342 211.697 975.336 211.704C975.313 211.73 974.954 212.119 973.134 212.45C969.453 213.12 962.617 213.134 949.664 213.134V219.134ZM981.525 210.282C981.525 208.79 981.276 207.135 980.218 205.718C979.142 204.278 977.599 203.572 976.07 203.184C974.566 202.803 972.739 202.647 970.668 202.57C968.568 202.493 966.003 202.494 962.964 202.494V208.494C966.043 208.494 968.482 208.494 970.447 208.566C972.441 208.64 973.739 208.783 974.596 209C975.428 209.211 975.48 209.402 975.411 209.309C975.358 209.238 975.525 209.379 975.525 210.282H981.525ZM962.964 202.494C956.687 202.494 951.008 202.471 946.948 203.5C944.856 204.03 942.827 204.92 941.327 206.545C939.76 208.242 939.083 210.397 939.083 212.809H945.083C945.083 211.562 945.403 210.975 945.736 210.615C946.135 210.182 946.907 209.7 948.423 209.316C951.578 208.516 956.34 208.494 962.964 208.494V202.494ZM942.083 209.809H907.503V215.809H942.083V209.809ZM910.503 212.809C910.503 205.545 911.804 199.96 914.072 195.639C916.325 191.348 919.623 188.13 923.919 185.715C932.676 180.792 945.508 179.234 961.634 179.234V173.234C945.441 173.234 931.207 174.734 920.979 180.485C915.781 183.406 911.606 187.429 908.76 192.85C905.929 198.243 904.503 204.844 904.503 212.809H910.503ZM961.634 179.234C977.941 179.234 990.21 180.782 998.33 184.718C1002.32 186.652 1005.21 189.117 1007.12 192.184C1009.03 195.254 1010.1 199.148 1010.1 204.164H1016.1C1016.1 198.273 1014.83 193.223 1012.21 189.011C1009.58 184.797 1005.74 181.642 1000.95 179.32C991.511 174.744 978.045 173.234 961.634 173.234V179.234ZM1010.1 204.164C1010.1 208.197 1009.06 211.489 1007.18 214.244C1005.29 217.028 1002.42 219.426 998.546 221.456L1001.33 226.771C1005.83 224.412 1009.55 221.423 1012.14 217.624C1014.75 213.796 1016.1 209.307 1016.1 204.164H1010.1Z" fill="white"/>
<path d="M38.022 97.5635V190.664H3.44201V97.5635H38.022ZM44.6772 143.981C44.6772 111.662 62.2332 96.2335 103.197 96.2335C140.437 96.2335 159.855 109.268 161.318 138.661H125.94C124.61 129.883 117.827 125.494 103.197 125.494C82.7152 125.494 79.2572 134.139 79.2572 143.981C79.2572 153.956 82.8482 162.734 103.197 162.734C117.827 162.734 124.61 158.212 125.94 149.301H161.318C159.855 178.827 140.57 191.994 103.197 191.994C62.2332 191.994 44.6772 176.433 44.6772 143.981ZM315.711 97.5635H350.291V190.664H315.711V158.744H261.181V190.664H226.601V97.5635H261.181V129.484H315.711V97.5635ZM447.376 190.664L440.992 173.906H401.358L394.974 190.664H356.936L395.506 97.5635H446.844L485.414 190.664H447.376ZM410.402 149.966H431.948L421.175 121.504L410.402 149.966ZM480.159 143.981C480.159 111.662 497.715 96.2335 538.679 96.2335C575.919 96.2335 595.337 109.268 596.8 138.661H561.422C560.092 129.883 553.309 125.494 538.679 125.494C518.197 125.494 514.739 134.139 514.739 143.981C514.739 153.956 518.33 162.734 538.679 162.734C553.309 162.734 560.092 158.212 561.422 149.301H596.8C595.337 178.827 576.052 191.994 538.679 191.994C497.715 191.994 480.159 176.433 480.159 143.981ZM731.457 97.5635L677.858 141.454L731.457 190.664H683.577L653.785 161.138L639.421 172.975V190.664H604.841V97.5635H639.421V134.006L682.247 97.5635H731.457ZM775.465 94.9035L766.155 137.464H738.225L743.545 94.9035H775.465ZM890.357 125.494C890.357 155.685 844.738 151.03 838.088 161.404H889.027V190.664H784.755V174.704C784.755 139.858 855.777 143.183 855.777 130.149C855.777 126.159 852.452 125.494 840.881 125.494C828.645 125.494 820.665 125.494 820.665 134.139H786.085C786.085 102.352 807.897 96.2335 839.551 96.2335C871.604 96.2335 890.357 102.352 890.357 125.494ZM989.502 144.114C997.881 148.503 1002.67 154.887 1002.67 164.064C1002.67 185.876 983.916 191.994 951.198 191.994C918.879 191.994 897.067 185.876 897.067 155.419H931.647C931.647 162.734 939.627 162.734 952.528 162.734C964.764 162.734 968.089 162.734 968.089 157.946C968.089 152.094 964.764 152.094 939.228 152.094V136.134C964.764 136.134 968.089 136.134 968.089 130.282C968.089 125.494 964.764 125.494 952.528 125.494C939.627 125.494 931.647 125.494 931.647 132.809H897.067C897.067 102.352 918.879 96.2335 951.198 96.2335C983.916 96.2335 1002.67 102.352 1002.67 124.164C1002.67 133.341 997.881 139.725 989.502 144.114Z" fill="white"/>
</svg>
